<svg width="40" height="40" viewBox="0 0 40 40" fill="none" xmlns="http://www.w3.org/2000/svg">
<path fill-rule="evenodd" clip-rule="evenodd" d="M20.3333 13C15.731 13 12 16.731 12 21.3333C12 25.9357 15.731 29.6667 20.3333 29.6667C24.9357 29.6667 28.6667 25.9357 28.6667 21.3333C28.6667 16.731 24.9357 13 20.3333 13ZM15.3333 21.3333C15.3333 18.5719 17.5719 16.3333 20.3333 16.3333C23.0948 16.3333 25.3333 18.5719 25.3333 21.3333C25.3333 24.0948 23.0948 26.3333 20.3333 26.3333C17.5719 26.3333 15.3333 24.0948 15.3333 21.3333Z" fill="black"/>
<path fill-rule="evenodd" clip-rule="evenodd" d="M26.2253 3H14.4414L11.108 8H7C4.24619 8 2 10.2462 2 13V31.3333C2 32.6594 2.52678 33.9312 3.46447 34.8689C4.40215 35.8065 5.67392 36.3333 7 36.3333H33.6667C34.9927 36.3333 36.2645 35.8065 37.2022 34.8689C38.1399 33.9312 38.6667 32.6594 38.6667 31.3333V13C38.6667 11.6739 38.1399 10.4021 37.2022 9.46447C36.2645 8.52678 34.9927 8 33.6667 8H29.5586L26.2253 3ZM12.892 11.3333L16.2253 6.33333H24.4414L27.7747 11.3333H33.6667C34.1087 11.3333 34.5326 11.5089 34.8452 11.8215C35.1577 12.134 35.3333 12.558 35.3333 13V31.3333C35.3333 31.7754 35.1577 32.1993 34.8452 32.5118C34.5326 32.8244 34.1087 33 33.6667 33H7C6.55797 33 6.13405 32.8244 5.82149 32.5118C5.50893 32.1993 5.33333 31.7754 5.33333 31.3333V13C5.33333 12.0871 6.08714 11.3333 7 11.3333H12.892Z" fill="black"/>
</svg>
