<svg width="40" height="40" viewBox="0 0 40 40" fill="none" xmlns="http://www.w3.org/2000/svg">
<path fill-rule="evenodd" clip-rule="evenodd" d="M8 5.33333C7.55797 5.33333 7.13405 5.50893 6.82149 5.82149C6.50893 6.13405 6.33333 6.55797 6.33333 7V29.643L10.643 25.3333H31.3333C31.7754 25.3333 32.1993 25.1577 32.5118 24.8452C32.8244 24.5326 33 24.1087 33 23.6667V7C33 6.55797 32.8244 6.13405 32.5118 5.82149C32.1993 5.50893 31.7754 5.33333 31.3333 5.33333H8ZM4.46447 3.46447C5.40215 2.52678 6.67392 2 8 2H31.3333C32.6594 2 33.9312 2.52678 34.8689 3.46447C35.8065 4.40215 36.3333 5.67392 36.3333 7V23.6667C36.3333 24.9927 35.8065 26.2645 34.8689 27.2022C33.9312 28.1399 32.6594 28.6667 31.3333 28.6667H12.0237L3 37.6904V7C3 5.67392 3.52678 4.40215 4.46447 3.46447Z" fill="black"/>
</svg>
