<svg width="40" height="40" viewBox="0 0 40 40" fill="none" xmlns="http://www.w3.org/2000/svg">
<path d="M32.675 7.32482C29.175 3.7748 24.95 1.99982 20 1.99982C15.05 1.99982 10.8125 3.7623 7.2875 7.28732C3.76248 10.8123 2 15.0498 2 19.9998C2 24.9498 3.76248 29.1873 7.2875 32.7123C10.8125 36.2373 15.05 37.9998 20 37.9998C24.95 37.9998 29.1875 36.2373 32.7125 32.7123C36.2375 29.1873 38 24.9498 38 19.9998C38 15.0498 36.225 10.8248 32.675 7.32482ZM33.125 11.5998H29.525C28.825 9.39981 27.9 7.52483 26.75 5.97482C29.4 7.22482 31.525 9.0998 33.125 11.5998ZM21.2 11.5998V4.62482C22.35 4.92482 23.4375 5.68731 24.4625 6.91232C25.4875 8.13732 26.35 9.69981 27.05 11.5998H21.2ZM27.725 13.9998C28.075 15.4998 28.3 17.0998 28.4 18.7998H21.2V13.9998H27.725ZM18.8 4.62482V11.5998H12.95C13.65 9.69981 14.5125 8.13732 15.5375 6.91232C16.5625 5.68731 17.65 4.92482 18.8 4.62482ZM18.8 13.9998V18.7998H11.6C11.7 17.0998 11.925 15.4998 12.275 13.9998H18.8ZM9.2 18.7998H4.475C4.575 17.0998 4.95 15.4998 5.6 13.9998H9.8C9.5 15.5498 9.3 17.1498 9.2 18.7998ZM9.2 21.1998C9.3 22.8498 9.5 24.4498 9.8 25.9998H5.6C4.95 24.4998 4.575 22.8998 4.475 21.1998H9.2ZM11.6 21.1998H18.8V25.9998H12.275C11.925 24.4998 11.7 22.8998 11.6 21.1998ZM18.8 28.3998V35.3748C17.65 35.0748 16.5625 34.3123 15.5375 33.0873C14.5125 31.8623 13.65 30.2998 12.95 28.3998H18.8ZM21.2 35.3748V28.3998H27.05C26.35 30.2998 25.4875 31.8623 24.4625 33.0873C23.4375 34.3123 22.35 35.0748 21.2 35.3748ZM21.2 25.9998V21.1998H28.4C28.3 22.8998 28.075 24.4998 27.725 25.9998H21.2ZM30.8 21.1998H35.525C35.425 22.8998 35.05 24.4998 34.4 25.9998H30.2C30.5 24.4498 30.7 22.8498 30.8 21.1998ZM30.8 18.7998C30.7 17.1498 30.5 15.5498 30.2 13.9998H34.4C35.05 15.4998 35.425 17.0998 35.525 18.7998H30.8ZM13.25 5.97482C12.1 7.52483 11.175 9.39981 10.475 11.5998H6.875C8.47501 9.0998 10.6 7.22482 13.25 5.97482ZM6.875 28.3998H10.475C11.175 30.5998 12.1 32.4748 13.25 34.0248C10.6 32.7748 8.47501 30.8998 6.875 28.3998ZM26.75 34.0248C27.9 32.4748 28.825 30.5998 29.525 28.3998H33.125C31.525 30.8998 29.4 32.7748 26.75 34.0248Z" fill="black"/>
</svg>
