<svg width="40" height="40" viewBox="0 0 40 40" fill="none" xmlns="http://www.w3.org/2000/svg">
<path d="M24.6863 7.00428C25.6619 6.9706 26.6341 7.13605 27.5436 7.49053C28.4531 7.84502 29.2808 8.38111 29.9762 9.06609C30.6466 9.76149 31.1708 10.5842 31.5178 11.4856C31.8647 12.3871 32.0275 13.3489 31.9964 14.3143V24.6859C31.9964 26.8518 31.2883 28.7158 29.9346 30.0278C28.4985 31.3537 26.5981 32.0607 24.6447 31.9959H14.3565C12.4194 32.0559 10.5369 31.3486 9.11865 30.0278C8.4156 29.3236 7.86509 28.4822 7.50141 27.556C7.13773 26.6298 6.96867 25.6386 7.00477 24.6442V14.3143C7.00477 9.91997 9.92046 7.00428 14.3148 7.00428H24.6863ZM24.7384 9.32642H14.3565C12.8466 9.32642 11.5449 9.77419 10.6806 10.6281C10.2188 11.12 9.86088 11.6999 9.62829 12.3333C9.3957 12.9667 9.29319 13.6404 9.32691 14.3143V24.6442C9.32691 26.2062 9.77468 27.4558 10.6806 28.3721C11.691 29.2658 13.0088 29.7324 14.3565 29.6738H24.6447C25.9923 29.7324 27.3101 29.2658 28.3205 28.3721C28.8056 27.8922 29.1857 27.3167 29.4367 26.6821C29.6876 26.0476 29.804 25.3678 29.7784 24.6859V14.3143C29.812 12.9738 29.3271 11.672 28.4247 10.6801C27.9328 10.2183 27.3528 9.86039 26.7194 9.6278C26.0861 9.3952 25.4123 9.2927 24.7384 9.32642ZM19.5006 13.0023C23.0307 13.0023 25.9568 15.918 25.9568 19.4584C25.9568 21.1707 25.2766 22.8129 24.0658 24.0236C22.855 25.2344 21.2129 25.9146 19.5006 25.9146C17.7883 25.9146 16.1462 25.2344 14.9354 24.0236C13.7246 22.8129 13.0444 21.1707 13.0444 19.4584C13.0444 17.7462 13.7246 16.104 14.9354 14.8932C16.1462 13.6825 17.7883 13.0023 19.5006 13.0023ZM19.5006 15.314C18.4059 15.3195 17.3575 15.7568 16.5834 16.5309C15.8093 17.305 15.372 18.3533 15.3666 19.448C15.372 20.5428 15.8093 21.5911 16.5834 22.3652C17.3575 23.1393 18.4059 23.5766 19.5006 23.5821C20.5953 23.5766 21.6436 23.1393 22.4177 22.3652C23.1918 21.5911 23.6291 20.5428 23.6346 19.448C23.6291 18.3533 23.1918 17.305 22.4177 16.5309C21.6436 15.7568 20.5953 15.3195 19.5006 15.314ZM26.2067 11.3882C26.5933 11.3882 26.9641 11.5418 27.2375 11.8152C27.5109 12.0886 27.6645 12.4594 27.6645 12.8461C27.6645 13.2327 27.5109 13.6035 27.2375 13.8769C26.9641 14.1503 26.5933 14.3039 26.2067 14.3039C25.82 14.3039 25.4492 14.1503 25.1758 13.8769C24.9024 13.6035 24.7488 13.2327 24.7488 12.8461C24.7488 12.4594 24.9024 12.0886 25.1758 11.8152C25.4492 11.5418 25.82 11.3882 26.2067 11.3882Z" fill="black"/>
</svg>
