<svg width="40" height="40" viewBox="0 0 40 40" fill="none" xmlns="http://www.w3.org/2000/svg">
<path d="M25.6533 2.00034C23.3187 1.98005 21.0696 2.8775 19.3903 4.4994L19.3826 4.50685L15.7702 8.09825L17.8627 10.203L21.4595 6.62716C22.5782 5.55033 24.0745 4.95466 25.6275 4.96815C27.1838 4.98168 28.6726 5.60594 29.7732 6.7065C30.8737 7.80705 31.498 9.29584 31.5115 10.8522C31.525 12.4045 30.9299 13.9001 29.854 15.0187L25.4115 19.4612C24.8097 20.0631 24.0855 20.5287 23.288 20.8262C22.4906 21.1236 21.6384 21.2461 20.7894 21.1853C19.9404 21.1245 19.1144 20.8819 18.3675 20.4738C17.6205 20.0657 16.9701 19.5017 16.4602 18.8201L15.5714 17.6318L13.1947 19.4095L14.0836 20.5978C14.8484 21.6202 15.824 22.4662 16.9445 23.0783C18.0649 23.6905 19.3039 24.0545 20.5774 24.1457C21.8509 24.2369 23.1291 24.0531 24.3253 23.6069C25.5215 23.1607 26.6079 22.4623 27.5105 21.5594L31.9713 17.0986L31.9803 17.0893C33.6022 15.4101 34.4996 13.161 34.4793 10.8264C34.4591 8.49187 33.5227 6.25869 31.8718 4.60786C30.221 2.95702 27.9878 2.02062 25.6533 2.00034Z" fill="black"/>
<path d="M15.9023 12.3043C14.6288 12.2131 13.3506 12.3969 12.1543 12.8431C10.9582 13.2893 9.87177 13.9877 8.96917 14.8906L4.50835 19.3514L4.4994 19.3607C2.8775 21.0399 1.98005 23.2891 2.00034 25.6236C2.02062 27.9581 2.95702 30.1913 4.60786 31.8421C6.25869 33.493 8.49187 34.4294 10.8264 34.4497C13.161 34.47 15.4101 33.5725 17.0893 31.9506L17.0986 31.9416L20.6946 28.3456L18.596 26.247L15.0187 29.8243C13.9001 30.9002 12.4045 31.4953 10.8522 31.4819C9.29584 31.4683 7.80705 30.8441 6.7065 29.7435C5.60594 28.6429 4.98167 27.1542 4.96815 25.5978C4.95466 24.0455 5.54981 22.5499 6.62573 21.4313L11.0682 16.9888C11.67 16.3869 12.3941 15.9213 13.1916 15.6238C13.9891 15.3264 14.8413 15.2039 15.6903 15.2647C16.5393 15.3255 17.3652 15.5681 18.1122 15.9762C18.8592 16.3843 19.5096 16.9483 20.0195 17.6299L20.9083 18.8182L23.2849 17.0405L22.3961 15.8522C21.6313 14.8298 20.6556 13.9838 19.5352 13.3717C18.4148 12.7595 17.1758 12.3955 15.9023 12.3043Z" fill="black"/>
</svg>
