<svg width="40" height="40" viewBox="0 0 40 40" fill="none" xmlns="http://www.w3.org/2000/svg">
<path fill-rule="evenodd" clip-rule="evenodd" d="M2.00024 9.97022C1.99995 9.9872 1.99992 10.0042 2.00015 10.0211V30C2.00015 32.7538 4.24634 35 7.00015 35H33.6668C36.4206 35 38.6668 32.7538 38.6668 30V10.0195C38.667 10.0038 38.667 9.98796 38.6667 9.97217C38.6517 7.23108 36.4113 5 33.6668 5H7.00015C4.25628 5 2.01637 7.23002 2.00024 9.97022ZM5.51111 9.25659C5.78674 8.71154 6.35355 8.33333 7.00015 8.33333H33.6668C34.3134 8.33333 34.8802 8.71154 35.1559 9.25658L20.3335 19.6322L5.51111 9.25659ZM35.3335 13.2011V30C35.3335 30.9129 34.5797 31.6667 33.6668 31.6667H7.00015C6.08729 31.6667 5.33349 30.9129 5.33349 30V13.2011L20.3335 23.7011L35.3335 13.2011Z" fill="black"/>
</svg>
