<svg width="40" height="40" viewBox="0 0 40 40" fill="none" xmlns="http://www.w3.org/2000/svg">
<path fill-rule="evenodd" clip-rule="evenodd" d="M23 3H36.3333V16.3333H33V8.69036L16.3333 25.357L13.9763 23L30.643 6.33333H23V3ZM8 11.3333C7.08714 11.3333 6.33333 12.0871 6.33333 13V31.3333C6.33333 31.7754 6.50893 32.1993 6.82149 32.5118C7.13405 32.8244 7.55797 33 8 33H26.3333C26.7754 33 27.1993 32.8244 27.5118 32.5118C27.8244 32.1993 28 31.7754 28 31.3333V21.3333H31.3333V31.3333C31.3333 32.6594 30.8065 33.9312 29.8689 34.8689C28.9312 35.8065 27.6594 36.3333 26.3333 36.3333H8C6.67392 36.3333 5.40215 35.8065 4.46447 34.8689C3.52678 33.9312 3 32.6594 3 31.3333V13C3 10.2462 5.24619 8 8 8H18V11.3333H8Z" fill="black"/>
</svg>
