<svg width="40" height="40" viewBox="0 0 40 40" fill="none" xmlns="http://www.w3.org/2000/svg">
<path fill-rule="evenodd" clip-rule="evenodd" d="M5.33333 20.3333C5.33333 12.0491 12.0491 5.33333 20.3333 5.33333C28.6176 5.33333 35.3333 12.0491 35.3333 20.3333C35.3333 28.6176 28.6176 35.3333 20.3333 35.3333C12.0491 35.3333 5.33333 28.6176 5.33333 20.3333ZM20.3333 2C10.2081 2 2 10.2081 2 20.3333C2 30.4586 10.2081 38.6667 20.3333 38.6667C30.4586 38.6667 38.6667 30.4586 38.6667 20.3333C38.6667 10.2081 30.4586 2 20.3333 2ZM30.0046 20.3333L15.3333 10.5525V30.1142L30.0046 20.3333ZM23.9954 20.3333L18.6667 23.8858V16.7809L23.9954 20.3333Z" fill="black"/>
</svg>
