<svg width="40" height="40" viewBox="0 0 40 40" fill="none" xmlns="http://www.w3.org/2000/svg">
<path fill-rule="evenodd" clip-rule="evenodd" d="M8 7H9.66667C17.1811 7 24.3878 9.98511 29.7014 15.2986C35.0149 20.6122 38 27.8189 38 35.3333V37H34.6667V35.3333C34.6667 28.7029 32.0327 22.3441 27.3443 17.6557C22.6559 12.9673 16.2971 10.3333 9.66667 10.3333H8V7ZM8 18.6667H9.66667C14.0869 18.6667 18.3262 20.4226 21.4518 23.5482C24.5774 26.6738 26.3333 30.9131 26.3333 35.3334V37H23V35.3334C23 31.7971 21.5952 28.4057 19.0948 25.9053C16.5943 23.4048 13.2029 22 9.66667 22H8V18.6667ZM11.3333 30.3333C9.49238 30.3333 8 31.8257 8 33.6667C8 35.5076 9.49238 37 11.3333 37C13.1743 37 14.6667 35.5076 14.6667 33.6667C14.6667 31.8257 13.1743 30.3333 11.3333 30.3333Z" fill="black"/>
</svg>
