<svg width="40" height="40" viewBox="0 0 40 40" fill="none" xmlns="http://www.w3.org/2000/svg">
<path fill-rule="evenodd" clip-rule="evenodd" d="M26.3335 26.4186C24.2971 27.9872 21.714 28.9252 18.9035 28.9252C12.3294 28.9252 7 23.7932 7 17.4626C7 11.132 12.3294 6 18.9035 6C25.4776 6 30.8069 11.132 30.8069 17.4626C30.8069 20.1691 29.8329 22.6565 28.2039 24.6174L34 30.1988L32.1295 32L26.3335 26.4186ZM9.64522 17.4626C9.64522 12.5388 13.7903 8.54724 18.9035 8.54724C24.0167 8.54724 28.1617 12.5388 28.1617 17.4626C28.1617 19.7552 27.2631 21.8457 25.7865 23.4252L25.0954 24.0907C23.4551 25.5126 21.2842 26.378 18.9035 26.378C13.7903 26.378 9.64522 22.3864 9.64522 17.4626Z" fill="black"/>
</svg>
