<svg width="40" height="40" viewBox="0 0 40 40" fill="none" xmlns="http://www.w3.org/2000/svg">
<path d="M33 17.7167C30.5425 17.7226 28.1453 16.9562 26.147 15.5259V25.5016C26.1463 27.3492 25.5816 29.1526 24.5283 30.6706C23.475 32.1886 21.9833 33.3488 20.2528 33.9962C18.5222 34.6436 16.6353 34.7473 14.8442 34.2933C13.0532 33.8394 11.4434 32.8495 10.2302 31.456C9.01691 30.0625 8.25802 28.3318 8.05497 26.4954C7.85191 24.659 8.21436 22.8043 9.09386 21.1794C9.97336 19.5546 11.328 18.2369 12.9766 17.4026C14.6252 16.5684 16.4892 16.2573 18.3194 16.511V21.5285C17.4819 21.2651 16.5826 21.273 15.7499 21.5512C14.9172 21.8293 14.1936 22.3635 13.6826 23.0774C13.1716 23.7912 12.8992 24.6483 12.9044 25.5262C12.9096 26.4041 13.192 27.2579 13.7114 27.9657C14.2308 28.6736 14.9606 29.1992 15.7965 29.4675C16.6324 29.7358 17.5318 29.7332 18.3661 29.4599C19.2005 29.1866 19.9271 28.6567 20.4423 27.9458C20.9575 27.235 21.2349 26.3795 21.2349 25.5016V6H26.147C26.1436 6.4148 26.1784 6.82904 26.2508 7.23748C26.4215 8.14925 26.7764 9.01662 27.2939 9.78653C27.8113 10.5564 28.4803 11.2127 29.2601 11.7152C30.3694 12.4487 31.6701 12.8396 33 12.8393V17.7167Z" fill="black"/>
</svg>
