<svg width="40" height="40" viewBox="0 0 40 40" fill="none" xmlns="http://www.w3.org/2000/svg">
<path d="M30.4496 14.4768C30.4662 14.7155 30.4662 14.9542 30.4662 15.1951C30.4662 22.5349 24.8448 31 14.5659 31V30.9956C11.5295 31 8.55617 30.1355 6 28.5054C6.44152 28.5582 6.88525 28.5846 7.33009 28.5857C9.84642 28.5879 12.2908 27.7486 14.2705 26.2032C11.8792 26.1581 9.78224 24.6083 9.04969 22.3457C9.88736 22.5063 10.7505 22.4733 11.5727 22.2501C8.96559 21.7265 7.08997 19.4496 7.08997 16.8054C7.08997 16.7812 7.08997 16.7581 7.08997 16.735C7.86678 17.1651 8.73654 17.4038 9.62621 17.4302C7.17075 15.799 6.41386 12.552 7.89665 10.0133C10.7339 13.4836 14.92 15.5933 19.4138 15.8166C18.9634 13.8873 19.5787 11.8656 21.0305 10.5094C23.2812 8.40633 26.8211 8.51412 28.9369 10.7503C30.1884 10.505 31.3879 10.0485 32.4856 9.40176C32.0685 10.6876 31.1954 11.7798 30.0291 12.4739C31.1367 12.3441 32.219 12.0493 33.2381 11.5994C32.4879 12.717 31.5428 13.6904 30.4496 14.4768Z" fill="black"/>
</svg>
