<svg width="40" height="40" viewBox="0 0 40 40" fill="none" xmlns="http://www.w3.org/2000/svg">
<path fill-rule="evenodd" clip-rule="evenodd" d="M20 7C16.6249 7 13.8889 9.79822 13.8889 13.25C13.8889 16.7018 16.6249 19.5 20 19.5C23.3751 19.5 26.1111 16.7018 26.1111 13.25C26.1111 9.79822 23.3751 7 20 7ZM16.3333 13.25C16.3333 11.1789 17.975 9.5 20 9.5C22.0251 9.5 23.6667 11.1789 23.6667 13.25C23.6667 15.3211 22.0251 17 20 17C17.975 17 16.3333 15.3211 16.3333 13.25Z" fill="black"/>
<path d="M15.1111 22C13.4903 22 11.936 22.6585 10.7899 23.8306C9.64385 25.0027 9 26.5924 9 28.25V32H11.4444V28.25C11.4444 27.2554 11.8308 26.3016 12.5184 25.5984C13.206 24.8951 14.1387 24.5 15.1111 24.5H24.8889C25.8613 24.5 26.794 24.8951 27.4816 25.5984C28.1692 26.3016 28.5556 27.2554 28.5556 28.25V32H31V28.25C31 26.5924 30.3562 25.0027 29.2101 23.8306C28.064 22.6585 26.5097 22 24.8889 22H15.1111Z" fill="black"/>
</svg>
